<svg width="45" height="10" viewBox="0 0 45 10" fill="none" xmlns="http://www.w3.org/2000/svg">
<path fill-rule="evenodd" clip-rule="evenodd" d="M36.7001 9.99999H36.7001L32.4141 3.05176e-05H36.1594L38.5728 5.63069L40.9861 3.05176e-05H44.7314L40.4455 9.99999H40.4454H36.7001Z" fill="white" fill-opacity="0.4"/>
<path fill-rule="evenodd" clip-rule="evenodd" d="M24.8846 0H24.8846L20.5986 9.99996H24.344L26.7573 4.36931L29.1706 9.99996H32.916L28.63 0H28.63H24.8846Z" fill="#D49B65"/>
<path fill-rule="evenodd" clip-rule="evenodd" d="M4.286 0H4.28599L0 9.99996H3.74538L6.15869 4.36931L8.572 9.99996H8.57227H12.3174H12.3177L14.731 4.36915L17.1444 9.99996H17.1445L19.0171 5.63074L16.6038 0H16.6036H12.8584H12.8583L10.4448 5.63095L8.03139 0H8.03138H4.286Z" fill="white" fill-opacity="0.4"/>
</svg>
