<svg width="76" height="107" viewBox="0 0 76 107" fill="none" xmlns="http://www.w3.org/2000/svg">
<g filter="url(#filter0_i)">
<path d="M75.4134 37.9012C75.4134 58.1004 52.9209 96.1467 38.9485 97.7696C38.7616 97.7913 39.5917 103.091 44.5948 105.176C44.3976 105.743 35.9319 108.187 32.0869 105.176C37.646 103.369 37.4219 97.7994 37.2613 97.7832C23.2985 96.3747 0.671143 58.1609 0.671143 37.9012C0.671143 17.2593 17.4028 0.525635 38.0423 0.525635C58.6818 0.525635 75.4134 17.2593 75.4134 37.9012Z" fill="url(#paint0_radial)"/>
</g>
<g filter="url(#filter1_i)">
<path d="M75.4134 37.9012C75.4134 58.1004 52.9209 96.1467 38.9485 97.7696C38.7616 97.7913 39.5917 103.091 44.5948 105.176C44.3976 105.743 35.9319 108.187 32.0869 105.176C37.646 103.369 37.4219 97.7994 37.2613 97.7832C23.2985 96.3747 0.671143 58.1609 0.671143 37.9012C0.671143 17.2593 17.4028 0.525635 38.0423 0.525635C58.6818 0.525635 75.4134 17.2593 75.4134 37.9012Z" fill="url(#paint1_radial)"/>
</g>
<g opacity="0.2" filter="url(#filter2_f)">
<path d="M25.2091 17.9086C23.6941 15.339 20.4026 14.5318 18.2113 16.5558C13.359 21.0377 6.47635 30.0382 9.59696 43.2687C10.3745 46.5655 14.2756 47.6697 17.0686 45.7536L20.3135 43.5275C21.9169 42.4275 22.7662 40.5481 22.7977 38.6039C22.8885 32.9814 24.5257 28.6619 25.9455 25.953C27.0207 23.9016 27.2425 21.3575 26.0661 19.3622L25.2091 17.9086Z" fill="white"/>
</g>
<g opacity="0.1" filter="url(#filter3_f)">
<path d="M41.7518 81.9072C43.8738 83.5577 46.8604 83.401 48.6633 81.4069C57.2925 71.8626 79.4113 43.9337 65.607 21.6366C64.4323 19.7392 62.0671 19.0376 59.9357 19.6989L49.9824 22.7874C47.39 23.5918 45.8154 26.2105 46.1677 28.9019C49.1457 51.6523 43.652 65.2481 39.5026 71.9251C37.7141 74.803 37.9767 78.971 40.6513 81.0513L41.7518 81.9072Z" fill="white"/>
</g>
<rect x="20.3026" y="33.4842" width="37.7231" height="10.5403" rx="5.27014" stroke="#FFF200" stroke-width="2.57"/>
<path d="M23.6311 44.0245V61.324C23.6311 64.6377 26.3174 67.324 29.6311 67.324H39.1642M54.6972 44.0245V61.324C54.6972 64.6378 52.0109 67.324 48.6972 67.324H39.1642M39.1642 67.324V44.0245" stroke="#FFF200" stroke-width="2.57"/>
<path d="M39.1642 33.4842L37.888 33.3338L37.7188 34.7692H39.1642V33.4842ZM53.0958 30.7479C53.7181 30.4068 53.9461 29.6258 53.605 29.0034C53.2639 28.3811 52.4829 28.1531 51.8606 28.4942L53.0958 30.7479ZM39.6478 34.6747C44.2717 32.7964 46.9506 30.3358 48.1693 27.9029C49.3695 25.5069 49.1657 23.0029 47.7026 21.5595C46.9621 20.829 45.9484 20.4482 44.8477 20.5727C43.7674 20.6949 42.7309 21.2854 41.8267 22.2449C40.04 24.141 38.5536 27.6866 37.888 33.3338L40.4403 33.6346C41.08 28.2075 42.4653 25.3146 43.6971 24.0075C44.3021 23.3654 44.8116 23.1632 45.1365 23.1264C45.441 23.092 45.6919 23.186 45.8977 23.3891C46.3273 23.8129 46.7435 25.0111 45.8715 26.7519C45.018 28.4556 42.9326 30.5664 38.6805 32.2937L39.6478 34.6747ZM52.4782 29.621C51.8606 28.4942 51.8608 28.4941 51.8609 28.494C51.8609 28.494 51.8611 28.4939 51.8611 28.4939C51.8611 28.4939 51.8611 28.4939 51.861 28.494C51.8607 28.4941 51.8599 28.4945 51.8588 28.4952C51.8565 28.4964 51.8525 28.4986 51.8469 28.5016C51.8357 28.5077 51.8179 28.5172 51.7937 28.5301C51.7453 28.5558 51.6716 28.5947 51.5744 28.6448C51.38 28.745 51.0919 28.8901 50.7254 29.065C49.9916 29.4153 48.9478 29.8834 47.7148 30.3512C45.2239 31.2964 42.0667 32.1992 39.1642 32.1992V34.7692C42.527 34.7692 46.0268 33.7405 48.6266 32.754C49.939 32.2561 51.0489 31.7584 51.8325 31.3843C52.2247 31.1971 52.5363 31.0403 52.7517 30.9293C52.8595 30.8737 52.9433 30.8296 53.0013 30.7987C53.0303 30.7833 53.0528 30.7712 53.0686 30.7626C53.0765 30.7584 53.0828 30.755 53.0873 30.7525C53.0896 30.7513 53.0914 30.7503 53.0928 30.7495C53.0935 30.7491 53.0941 30.7488 53.0946 30.7485C53.0949 30.7484 53.0952 30.7482 53.0953 30.7482C53.0956 30.748 53.0958 30.7479 52.4782 29.621Z" fill="#FFF200"/>
<path d="M39.1642 33.4842L40.4403 33.3338L40.6095 34.7692H39.1642V33.4842ZM25.2325 30.7479C24.6102 30.4068 24.3822 29.6258 24.7233 29.0034C25.0644 28.3811 25.8454 28.1531 26.4677 28.4942L25.2325 30.7479ZM38.6805 34.6747C34.0566 32.7964 31.3777 30.3358 30.159 27.9029C28.9588 25.5069 29.1626 23.0029 30.6257 21.5595C31.3662 20.829 32.3799 20.4482 33.4806 20.5727C34.5609 20.6949 35.5974 21.2854 36.5016 22.2449C38.2883 24.141 39.7747 27.6866 40.4403 33.3338L37.888 33.6346C37.2483 28.2075 35.863 25.3146 34.6312 24.0075C34.0262 23.3654 33.5167 23.1632 33.1918 23.1264C32.8873 23.092 32.6364 23.186 32.4306 23.3891C32.001 23.8129 31.5848 25.0111 32.4568 26.7519C33.3103 28.4556 35.3957 30.5664 39.6478 32.2937L38.6805 34.6747ZM25.8501 29.621C26.4677 28.4942 26.4675 28.4941 26.4674 28.494C26.4674 28.494 26.4673 28.4939 26.4672 28.4939C26.4672 28.4939 26.4672 28.4939 26.4674 28.494C26.4677 28.4941 26.4684 28.4945 26.4695 28.4952C26.4718 28.4964 26.4758 28.4986 26.4814 28.5016C26.4926 28.5077 26.5104 28.5172 26.5346 28.5301C26.583 28.5558 26.6567 28.5947 26.7539 28.6448C26.9484 28.745 27.2364 28.8901 27.6029 29.065C28.3368 29.4153 29.3805 29.8834 30.6135 30.3512C33.1044 31.2964 36.2616 32.1992 39.1642 32.1992V34.7692C35.8013 34.7692 32.3015 33.7405 29.7017 32.754C28.3893 32.2561 27.2794 31.7584 26.4958 31.3843C26.1036 31.1971 25.7921 31.0403 25.5766 30.9293C25.4688 30.8737 25.385 30.8296 25.327 30.7987C25.298 30.7833 25.2755 30.7712 25.2597 30.7626C25.2518 30.7584 25.2455 30.755 25.241 30.7525C25.2387 30.7513 25.2369 30.7503 25.2355 30.7495C25.2348 30.7491 25.2342 30.7488 25.2337 30.7485C25.2334 30.7484 25.2331 30.7482 25.233 30.7482C25.2328 30.748 25.2325 30.7479 25.8501 29.621Z" fill="#FFF200"/>
<defs>
<filter id="filter0_i" x="0.671143" y="0.525635" width="74.7423" height="106.124" filterUnits="userSpaceOnUse" color-interpolation-filters="sRGB">
<feFlood flood-opacity="0" result="BackgroundImageFix"/>
<feBlend mode="normal" in="SourceGraphic" in2="BackgroundImageFix" result="shape"/>
<feColorMatrix in="SourceAlpha" type="matrix" values="0 0 0 0 0 0 0 0 0 0 0 0 0 0 0 0 0 0 127 0" result="hardAlpha"/>
<feOffset/>
<feGaussianBlur stdDeviation="5.20738"/>
<feComposite in2="hardAlpha" operator="arithmetic" k2="-1" k3="1"/>
<feColorMatrix type="matrix" values="0 0 0 0 0 0 0 0 0 0.239216 0 0 0 0 0.654902 0 0 0 1 0"/>
<feBlend mode="normal" in2="shape" result="effect1_innerShadow"/>
</filter>
<filter id="filter1_i" x="0.671143" y="0.525635" width="74.7423" height="106.124" filterUnits="userSpaceOnUse" color-interpolation-filters="sRGB">
<feFlood flood-opacity="0" result="BackgroundImageFix"/>
<feBlend mode="normal" in="SourceGraphic" in2="BackgroundImageFix" result="shape"/>
<feColorMatrix in="SourceAlpha" type="matrix" values="0 0 0 0 0 0 0 0 0 0 0 0 0 0 0 0 0 0 127 0" result="hardAlpha"/>
<feOffset/>
<feGaussianBlur stdDeviation="5.20738"/>
<feComposite in2="hardAlpha" operator="arithmetic" k2="-1" k3="1"/>
<feColorMatrix type="matrix" values="0 0 0 0 0 0 0 0 0 0.239216 0 0 0 0 0.654902 0 0 0 1 0"/>
<feBlend mode="normal" in2="shape" result="effect1_innerShadow"/>
</filter>
<filter id="filter2_f" x="5.72641" y="12.3293" width="24.2153" height="37.451" filterUnits="userSpaceOnUse" color-interpolation-filters="sRGB">
<feFlood flood-opacity="0" result="BackgroundImageFix"/>
<feBlend mode="normal" in="SourceGraphic" in2="BackgroundImageFix" result="shape"/>
<feGaussianBlur stdDeviation="1.54338" result="effect1_foregroundBlur"/>
</filter>
<filter id="filter3_f" x="35.2745" y="16.369" width="37.8448" height="69.7526" filterUnits="userSpaceOnUse" color-interpolation-filters="sRGB">
<feFlood flood-opacity="0" result="BackgroundImageFix"/>
<feBlend mode="normal" in="SourceGraphic" in2="BackgroundImageFix" result="shape"/>
<feGaussianBlur stdDeviation="1.54338" result="effect1_foregroundBlur"/>
</filter>
<radialGradient id="paint0_radial" cx="0" cy="0" r="1" gradientUnits="userSpaceOnUse" gradientTransform="translate(23.9562 29.5998) rotate(64.5752) scale(86.3764 66.3862)">
<stop stop-color="#23C4FF"/>
<stop offset="1" stop-color="#0085FF" stop-opacity="0.1"/>
</radialGradient>
<radialGradient id="paint1_radial" cx="0" cy="0" r="1" gradientUnits="userSpaceOnUse" gradientTransform="translate(23.9562 29.5998) rotate(64.5752) scale(86.3764 66.3862)">
<stop stop-color="#23C4FF"/>
<stop offset="1" stop-color="#0085FF" stop-opacity="0.1"/>
</radialGradient>
</defs>
</svg>
