<svg width="1920" height="1006" viewBox="0 0 1920 1006" fill="none" xmlns="http://www.w3.org/2000/svg">
<path fill-rule="evenodd" clip-rule="evenodd" d="M402.643 1548.57C5.8937 1573.04 -335.579 1271.26 -360.057 874.511C-384.536 477.762 -82.751 136.289 313.998 111.811C448.296 103.525 576.26 132.622 687.741 190.132C765.617 154.663 851.182 132.583 941.688 126.999C1132.31 115.238 1310.18 178.795 1446.25 292.014C1508.92 254.531 1581.25 231.08 1659.16 226.273C1919.31 210.223 2143.22 408.106 2159.27 668.258C2175.32 928.41 1977.44 1152.32 1717.29 1168.37C1687.85 1170.18 1658.88 1169.26 1630.62 1165.82C1519.72 1388.39 1296.37 1547.34 1030.33 1563.75C896.034 1572.04 768.07 1542.94 656.59 1485.43C578.713 1520.9 493.149 1542.98 402.643 1548.57Z" fill="url(#paint0_linear)"/>
<defs>
<linearGradient id="paint0_linear" x1="902.826" y1="-54.3458" x2="902.825" y2="582.458" gradientUnits="userSpaceOnUse">
<stop stop-color="white" stop-opacity="0"/>
<stop offset="1" stop-color="#4CDFFF" stop-opacity="0.22"/>
</linearGradient>
</defs>
</svg>
