<svg width="224" height="224" viewBox="0 0 224 224" fill="none" xmlns="http://www.w3.org/2000/svg">
<g clip-path="url(#clip0)">
<g filter="url(#filter0_f)">
<path d="M106.761 56.1289C108.426 51.685 114.695 51.6394 116.425 56.0585L123.406 73.8958C124.487 76.659 127.666 77.9486 130.367 76.7199L147.802 68.7884C152.122 66.8234 156.587 71.2243 154.685 75.572L147.009 93.1213C145.82 95.8398 147.155 98.9994 149.934 100.04L167.871 106.761C172.315 108.426 172.361 114.695 167.942 116.425L150.104 123.406C147.341 124.487 146.051 127.666 147.28 130.367L155.212 147.802C157.177 152.122 152.776 156.587 148.428 154.685L130.879 147.009C128.16 145.82 125.001 147.155 123.96 149.934L117.239 167.871C115.574 172.315 109.305 172.361 107.575 167.942L100.594 150.104C99.513 147.341 96.3342 146.052 93.6333 147.28L76.1978 155.212C71.8783 157.177 67.4128 152.776 69.3146 148.428L76.9912 130.879C78.1804 128.16 76.8446 125.001 74.066 123.96L56.1288 117.239C51.6849 115.574 51.6392 109.305 56.0584 107.575L73.8957 100.594C76.6589 99.5131 77.9485 96.3343 76.7198 93.6334L68.7883 76.1979C66.8233 71.8784 71.2242 67.4129 75.5719 69.3147L93.1212 76.9913C95.8397 78.1805 98.9993 76.8447 100.04 74.0661L106.761 56.1289Z" fill="#00E0FF" fill-opacity="0.51"/>
</g>
<g filter="url(#filter1_f)">
<path d="M110.905 38.9816L115.77 102.497L162.857 59.5939L121.386 107.946L185.018 110.905L121.503 115.77L164.406 162.858L116.054 121.386L113.095 185.018L108.23 121.503L61.1425 164.406L102.614 116.054L38.9815 113.095L102.497 108.23L59.5938 61.1425L107.946 102.614L110.905 38.9816Z" fill="#4FDFFF" fill-opacity="0.8"/>
</g>
<g filter="url(#filter2_f)">
<path d="M79.9741 32.0259L112.102 103.386L145.905 32.804L118.163 105.981L191.974 79.9741L120.614 112.102L191.196 145.904L118.019 118.163L144.026 191.974L111.898 120.614L78.0955 191.196L105.837 118.019L32.0259 144.026L103.386 111.898L32.804 78.0955L105.981 105.837L79.9741 32.0259Z" fill="#00C2FF" fill-opacity="0.55"/>
</g>
<g filter="url(#filter3_f)">
<path d="M109.779 77.1081C110.165 74.9212 113.295 74.8984 113.713 77.0794L115.252 85.1152C115.593 86.8925 117.93 87.3398 118.903 85.8138L123.3 78.9141C124.494 77.0414 127.394 78.2181 126.946 80.393L125.293 88.4062C124.927 90.1785 126.916 91.4864 128.399 90.4488L135.102 85.7571C136.921 84.4837 139.15 86.6808 137.904 88.5184L133.31 95.2892C132.294 96.7867 133.631 98.7561 135.398 98.3647L143.386 96.5953C145.554 96.1151 146.773 98.998 144.918 100.219L138.083 104.716C136.571 105.711 137.052 108.042 138.835 108.357L146.892 109.779C149.079 110.165 149.102 113.295 146.921 113.713L138.885 115.252C137.108 115.593 136.66 117.93 138.186 118.903L145.086 123.3C146.959 124.494 145.782 127.394 143.607 126.946L135.594 125.293C133.821 124.927 132.514 126.916 133.551 128.399L138.243 135.102C139.516 136.921 137.319 139.15 135.482 137.904L128.711 133.31C127.213 132.294 125.244 133.631 125.635 135.398L127.405 143.386C127.885 145.554 125.002 146.773 123.781 144.918L119.284 138.083C118.289 136.571 115.958 137.053 115.644 138.835L114.221 146.892C113.835 149.079 110.705 149.102 110.287 146.921L108.748 138.885C108.407 137.108 106.07 136.66 105.097 138.186L100.7 145.086C99.5061 146.959 96.6056 145.782 97.0542 143.607L98.707 135.594C99.0726 133.822 97.084 132.514 95.6014 133.551L88.8983 138.243C87.079 139.516 84.8497 137.319 86.0964 135.482L90.6899 128.711C91.7059 127.213 90.3691 125.244 88.6024 125.635L80.614 127.405C78.4459 127.885 77.2271 125.002 79.0822 123.781L85.9171 119.284C87.4288 118.289 86.9474 115.958 85.1654 115.644L77.108 114.221C74.9211 113.835 74.8983 110.705 77.0794 110.288L85.1151 108.748C86.8924 108.407 87.3397 106.07 85.8137 105.097L78.914 100.7C77.0413 99.5062 78.218 96.6057 80.3929 97.0543L88.4061 98.7071C90.1784 99.0727 91.4863 97.0841 90.4487 95.6015L85.757 88.8984C84.4836 87.0791 86.6807 84.8498 88.5183 86.0965L95.2891 90.69C96.7866 91.706 98.756 90.3692 98.3646 88.6025L96.5952 80.6141C96.115 78.446 98.9979 77.2272 100.219 79.0823L104.716 85.9172C105.711 87.4289 108.042 86.9475 108.356 85.1655L109.779 77.1081Z" fill="white" fill-opacity="0.7"/>
</g>
<g filter="url(#filter4_f)">
<path d="M109.869 89.5504C110.255 87.3635 113.385 87.3407 113.803 89.5217L114.106 91.1035C114.447 92.8808 116.785 93.3281 117.757 91.8021L118.623 90.4439C119.816 88.5713 122.717 89.748 122.268 91.9229L121.943 93.5002C121.577 95.2725 123.566 96.5804 125.048 95.5427L126.368 94.6192C128.187 93.3458 130.416 95.5429 129.17 97.3806L128.265 98.7133C127.249 100.211 128.586 102.18 130.353 101.789L131.925 101.441C134.094 100.96 135.312 103.843 133.457 105.064L132.112 105.949C130.6 106.944 131.082 109.275 132.864 109.59L134.45 109.869C136.637 110.255 136.659 113.385 134.478 113.803L132.897 114.106C131.119 114.447 130.672 116.785 132.198 117.757L133.556 118.623C135.429 119.816 134.252 122.717 132.077 122.268L130.5 121.943C128.728 121.577 127.42 123.566 128.457 125.048L129.381 126.368C130.654 128.187 128.457 130.416 126.619 129.17L125.287 128.266C123.789 127.25 121.82 128.586 122.211 130.353L122.56 131.925C123.04 134.094 120.157 135.312 118.936 133.457L118.051 132.112C117.056 130.6 114.725 131.082 114.411 132.864L114.131 134.45C113.745 136.637 110.615 136.659 110.197 134.478L109.894 132.897C109.553 131.119 107.215 130.672 106.243 132.198L105.377 133.556C104.184 135.429 101.283 134.252 101.732 132.077L102.057 130.5C102.423 128.728 100.434 127.42 98.9516 128.457L97.6322 129.381C95.8129 130.654 93.5836 128.457 94.8303 126.62L95.7345 125.287C96.7505 123.789 95.4137 121.82 93.6469 122.211L92.0745 122.56C89.9064 123.04 88.6876 120.157 90.5426 118.936L91.888 118.051C93.3997 117.056 92.9184 114.725 91.1363 114.411L89.5503 114.131C87.3634 113.745 87.3406 110.615 89.5216 110.197L91.1034 109.894C92.8807 109.553 93.328 107.216 91.802 106.243L90.4438 105.377C88.5712 104.184 89.7479 101.283 91.9228 101.732L93.5001 102.057C95.2724 102.423 96.5803 100.434 95.5426 98.9517L94.6191 97.6323C93.3457 95.813 95.5428 93.5837 97.3805 94.8304L98.7132 95.7346C100.211 96.7505 102.18 95.4138 101.789 93.647L101.44 92.0746C100.96 89.9065 103.843 88.6876 105.064 90.5427L105.949 91.8881C106.944 93.3998 109.275 92.9184 109.589 91.1364L109.869 89.5504Z" fill="white" fill-opacity="0.7"/>
</g>
<path opacity="0.7" d="M111.232 60.7614L114.646 105.331L147.688 75.2255L118.586 109.155L163.239 111.232L118.669 114.646L148.775 147.688L114.845 118.586L112.768 163.239L109.354 118.669L76.3122 148.775L105.414 114.845L60.7614 112.768L105.331 109.354L75.2254 76.3122L109.155 105.414L111.232 60.7614Z" fill="white" fill-opacity="0.8"/>
<path d="M92.1803 62.507L112.094 104.004L132.982 62.9886L117.721 106.412L161.493 92.1804L119.997 112.095L161.012 132.982L117.588 117.721L131.82 161.493L111.906 119.997L91.0177 161.012L106.279 117.588L62.5068 131.82L104.003 111.906L62.9884 91.0178L106.412 106.279L92.1803 62.507Z" fill="white" fill-opacity="0.8"/>
</g>
<defs>
<filter id="filter0_f" x="33.8401" y="33.8402" width="156.32" height="156.32" filterUnits="userSpaceOnUse" color-interpolation-filters="sRGB">
<feFlood flood-opacity="0" result="BackgroundImageFix"/>
<feBlend mode="normal" in="SourceGraphic" in2="BackgroundImageFix" result="shape"/>
<feGaussianBlur stdDeviation="9.24915" result="effect1_foregroundBlur"/>
</filter>
<filter id="filter1_f" x="35.8865" y="35.8866" width="152.227" height="152.227" filterUnits="userSpaceOnUse" color-interpolation-filters="sRGB">
<feFlood flood-opacity="0" result="BackgroundImageFix"/>
<feBlend mode="normal" in="SourceGraphic" in2="BackgroundImageFix" result="shape"/>
<feGaussianBlur stdDeviation="1" result="effect1_foregroundBlur"/>
</filter>
<filter id="filter2_f" x="-2" y="-2" width="228" height="228" filterUnits="userSpaceOnUse" color-interpolation-filters="sRGB">
<feFlood flood-opacity="0" result="BackgroundImageFix"/>
<feBlend mode="normal" in="SourceGraphic" in2="BackgroundImageFix" result="shape"/>
<feGaussianBlur stdDeviation="1" result="effect1_foregroundBlur"/>
</filter>
<filter id="filter3_f" x="68.1895" y="68.1895" width="87.621" height="87.621" filterUnits="userSpaceOnUse" color-interpolation-filters="sRGB">
<feFlood flood-opacity="0" result="BackgroundImageFix"/>
<feBlend mode="normal" in="SourceGraphic" in2="BackgroundImageFix" result="shape"/>
<feGaussianBlur stdDeviation="3.5" result="effect1_foregroundBlur"/>
</filter>
<filter id="filter4_f" x="80.7224" y="80.7225" width="62.5551" height="62.5551" filterUnits="userSpaceOnUse" color-interpolation-filters="sRGB">
<feFlood flood-opacity="0" result="BackgroundImageFix"/>
<feBlend mode="normal" in="SourceGraphic" in2="BackgroundImageFix" result="shape"/>
<feGaussianBlur stdDeviation="3.5" result="effect1_foregroundBlur"/>
</filter>
<clipPath id="clip0">
<rect width="224" height="224" fill="white"/>
</clipPath>
</defs>
</svg>
