<svg width="1367" height="629" viewBox="0 0 1367 629" fill="none" xmlns="http://www.w3.org/2000/svg">
<mask id="path-1-outside-1" maskUnits="userSpaceOnUse" x="7.12793" y="7.5415" width="1353" height="614" fill="black">
<rect fill="white" x="7.12793" y="7.5415" width="1353" height="614"/>
<path fill-rule="evenodd" clip-rule="evenodd" d="M1122.83 193.037C1127.51 192.434 1139.44 190.893 1243.73 174.3C1253.3 172.778 1262.41 170.907 1270.93 169.157C1312.19 160.68 1339.7 155.029 1339.7 205.44L1340.33 268.992C1340.33 316.921 1335.33 372.323 1323.22 386.183C1307.66 403.985 1297.77 405.334 1278.91 407.907C1270.62 409.038 1260.59 410.405 1247.59 413.509L468.766 548.351C422.742 582.251 366.018 602.259 304.661 602.259C150.832 602.259 26.1279 476.495 26.1279 321.359C26.1279 166.224 150.832 40.4617 304.661 40.4617C375.328 40.4617 439.85 67.0026 488.958 110.739C490.637 110.377 492.362 110.062 494.133 109.795L949.81 37.9815C951.577 37.7151 956.727 36.8344 963.525 35.6717C983.265 32.2956 1016.91 26.5415 1022.03 26.5415C1085.29 26.5415 1084.18 89.8764 1083.04 154.174C1082.89 162.715 1082.74 171.273 1082.74 179.701L1081.04 200.356L1120.44 193.365C1121.35 193.228 1121.97 193.149 1122.83 193.037Z"/>
</mask>
<path fill-rule="evenodd" clip-rule="evenodd" d="M1122.83 193.037C1127.51 192.434 1139.44 190.893 1243.73 174.3C1253.3 172.778 1262.41 170.907 1270.93 169.157C1312.19 160.68 1339.7 155.029 1339.7 205.44L1340.33 268.992C1340.33 316.921 1335.33 372.323 1323.22 386.183C1307.66 403.985 1297.77 405.334 1278.91 407.907C1270.62 409.038 1260.59 410.405 1247.59 413.509L468.766 548.351C422.742 582.251 366.018 602.259 304.661 602.259C150.832 602.259 26.1279 476.495 26.1279 321.359C26.1279 166.224 150.832 40.4617 304.661 40.4617C375.328 40.4617 439.85 67.0026 488.958 110.739C490.637 110.377 492.362 110.062 494.133 109.795L949.81 37.9815C951.577 37.7151 956.727 36.8344 963.525 35.6717C983.265 32.2956 1016.91 26.5415 1022.03 26.5415C1085.29 26.5415 1084.18 89.8764 1083.04 154.174C1082.89 162.715 1082.74 171.273 1082.74 179.701L1081.04 200.356L1120.44 193.365C1121.35 193.228 1121.97 193.149 1122.83 193.037Z" fill="white"/>
<path d="M1243.73 174.3L1246.72 193.064L1246.72 193.064L1243.73 174.3ZM1122.83 193.037L1120.4 174.194L1120.4 174.194L1122.83 193.037ZM1270.93 169.157L1267.1 150.546V150.546L1270.93 169.157ZM1339.7 205.44H1320.7V205.535L1320.7 205.63L1339.7 205.44ZM1340.33 268.992H1359.33V268.897L1359.33 268.802L1340.33 268.992ZM1323.22 386.183L1308.91 373.679L1308.91 373.68L1323.22 386.183ZM1278.91 407.907L1276.34 389.081L1278.91 407.907ZM1247.59 413.509L1250.83 432.231L1251.42 432.129L1252 431.99L1247.59 413.509ZM468.766 548.351L465.525 529.629L461.108 530.394L457.498 533.053L468.766 548.351ZM488.958 110.739L476.321 124.928L483.529 131.347L492.963 129.312L488.958 110.739ZM494.133 109.795L496.966 128.582L497.029 128.573L497.091 128.563L494.133 109.795ZM949.81 37.9815L946.978 19.1939L946.915 19.2033L946.853 19.2132L949.81 37.9815ZM963.525 35.6717L966.728 54.3998V54.3998L963.525 35.6717ZM1083.04 154.174L1102.04 154.508V154.508L1083.04 154.174ZM1082.74 179.701L1101.68 181.261L1101.74 180.483V179.701H1082.74ZM1081.04 200.356L1062.11 198.796L1060.08 223.372L1084.36 219.064L1081.04 200.356ZM1120.44 193.365L1117.61 174.578L1117.37 174.615L1117.12 174.658L1120.44 193.365ZM1240.75 155.536C1136.36 172.143 1124.74 173.633 1120.4 174.194L1125.27 211.881C1130.27 211.234 1142.51 209.643 1246.72 193.064L1240.75 155.536ZM1267.1 150.546C1258.54 152.306 1249.84 154.091 1240.75 155.536L1246.72 193.064C1256.77 191.465 1266.28 189.508 1274.75 187.768L1267.1 150.546ZM1358.7 205.44C1358.7 191.489 1356.86 179.001 1351.74 168.793C1346.17 157.697 1337.34 150.546 1326.55 147.11C1316.73 143.985 1306.26 144.244 1296.98 145.278C1287.55 146.328 1277.17 148.477 1267.1 150.546L1274.75 187.768C1285.31 185.599 1293.85 183.862 1301.19 183.044C1308.67 182.21 1312.81 182.617 1315.03 183.321C1316.26 183.714 1316.89 184.073 1317.77 185.83C1319.1 188.476 1320.7 194.186 1320.7 205.44H1358.7ZM1359.33 268.802L1358.7 205.25L1320.7 205.63L1321.33 269.182L1359.33 268.802ZM1337.52 398.686C1343.53 391.809 1347.01 382.185 1349.32 373.807C1351.82 364.734 1353.72 354.05 1355.16 342.779C1358.06 320.18 1359.33 293.502 1359.33 268.992H1321.33C1321.33 292.411 1320.11 317.399 1317.47 337.948C1316.15 348.251 1314.53 357.011 1312.68 363.722C1311.76 367.067 1310.86 369.62 1310.05 371.458C1309.19 373.408 1308.71 373.912 1308.91 373.679L1337.52 398.686ZM1281.47 426.733C1290.3 425.528 1300.18 424.308 1309.74 420.238C1319.96 415.888 1328.54 408.964 1337.52 398.686L1308.91 373.68C1302.34 381.204 1298.19 383.856 1294.86 385.274C1290.87 386.972 1286.37 387.713 1276.34 389.081L1281.47 426.733ZM1252 431.99C1264.03 429.117 1273.27 427.852 1281.47 426.733L1276.34 389.081C1267.96 390.224 1257.15 391.693 1243.18 395.029L1252 431.99ZM472.008 567.072L1250.83 432.231L1244.35 394.788L465.525 529.629L472.008 567.072ZM304.661 621.259C370.22 621.259 430.866 599.865 480.034 563.649L457.498 533.053C414.617 564.637 361.816 583.259 304.661 583.259V621.259ZM7.12793 321.359C7.12793 486.836 140.187 621.259 304.661 621.259V583.259C161.477 583.259 45.1279 466.153 45.1279 321.359H7.12793ZM304.661 21.4617C140.187 21.4617 7.12793 155.883 7.12793 321.359H45.1279C45.1279 176.566 161.476 59.4617 304.661 59.4617V21.4617ZM501.595 96.5509C449.155 49.8475 380.184 21.4617 304.661 21.4617V59.4617C370.473 59.4617 430.544 84.1577 476.321 124.928L501.595 96.5509ZM491.3 91.0073C489.147 91.332 487.031 91.7183 484.953 92.1664L492.963 129.312C494.244 129.036 495.577 128.792 496.966 128.582L491.3 91.0073ZM946.853 19.2132L491.175 91.0265L497.091 128.563L952.768 56.7499L946.853 19.2132ZM960.322 16.9436C953.365 18.1335 948.502 18.9641 946.978 19.1939L952.643 56.7692C954.653 56.4661 960.088 55.5354 966.728 54.3998L960.322 16.9436ZM1022.03 7.54152C1019.11 7.54152 1014.52 8.15998 1010.84 8.68097C1006.48 9.29892 1001.03 10.1465 995.23 11.0837C983.609 12.9608 970.174 15.2587 960.322 16.9436L966.728 54.3998C976.616 52.7086 989.873 50.4414 1001.29 48.5975C1007.01 47.6741 1012.17 46.8722 1016.17 46.3057C1020.85 45.6423 1022.39 45.5415 1022.03 45.5415V7.54152ZM1102.04 154.508C1102.59 123.459 1103.43 88.018 1094.81 60.5596C1090.33 46.2762 1082.87 32.569 1070.2 22.5423C1057.36 12.3842 1041.12 7.54152 1022.03 7.54152V45.5415C1034.57 45.5415 1041.91 48.6157 1046.62 52.3422C1051.5 56.2 1055.55 62.3451 1058.55 71.9327C1064.92 92.2161 1064.63 120.591 1064.05 153.84L1102.04 154.508ZM1101.74 179.701C1101.74 171.468 1101.89 163.079 1102.04 154.508L1064.05 153.84C1063.9 162.351 1063.74 171.077 1063.74 179.701H1101.74ZM1099.98 201.916L1101.68 181.261L1063.81 178.142L1062.11 198.796L1099.98 201.916ZM1117.12 174.658L1077.72 181.648L1084.36 219.064L1123.76 212.073L1117.12 174.658ZM1120.4 174.194C1119.53 174.306 1118.73 174.408 1117.61 174.578L1123.28 212.153C1123.97 212.049 1124.41 211.991 1125.27 211.881L1120.4 174.194Z" fill="white" mask="url(#path-1-outside-1)"/>
<path d="M1243.73 174.3C1120.12 193.965 1126.25 192.488 1120.44 193.365L1081.04 200.356L1082.74 179.701C1082.74 107.82 1093.69 26.5413 1022.03 26.5413C1015.15 26.5413 956.708 36.9413 949.81 37.9814L494.133 109.795C422.171 120.647 427.028 211.149 427.028 283.291L294.735 303.628C292.404 305.927 260.472 308.761 258.305 311.253C238.64 333.881 219.96 355.4 219.96 384.339L212.291 393.871C280.516 556.033 259.52 556.604 319.375 555.292C325.125 555.165 337.448 569.56 395.999 560.949L1247.59 413.509C1290.17 403.341 1300.82 411.809 1323.22 386.183C1335.33 372.323 1340.33 316.921 1340.33 268.992L1339.7 205.44C1339.7 144.621 1299.66 165.403 1243.73 174.3Z" fill="url(#paint0_radial)"/>
<path d="M1273.34 388.94L520.682 523.089C493.237 527.956 470.989 505.747 470.989 473.484V385.921C470.989 353.66 493.237 323.56 520.682 318.693L1273.34 184.544C1300.79 179.677 1323.04 201.887 1323.04 234.149V321.712C1323.04 368.868 1313.49 381.333 1273.34 388.94Z" fill="#FFEC00"/>
<path fill-rule="evenodd" clip-rule="evenodd" d="M640.647 355.223C637.47 354.911 633.998 355.109 630.224 355.81L600.279 361.371L584.946 455.95L601.28 452.917L606.875 418.989L627.19 415.215C631.098 414.489 634.795 413.074 638.284 410.969C641.77 408.866 644.856 406.194 647.54 402.955C650.22 399.718 652.344 395.961 653.908 391.686C655.472 387.411 656.248 382.753 656.239 377.701C656.231 372.649 655.578 368.531 654.282 365.345C652.982 362.162 651.182 359.751 648.874 358.125C646.567 356.499 643.824 355.53 640.647 355.223ZM636.212 393.949C633.807 397.005 630.511 398.922 626.323 399.699L609.571 402.811L614.128 374.474L628.16 371.867C629.626 371.597 631.039 371.505 632.403 371.591C633.763 371.682 635.002 372.031 636.12 372.637C637.239 373.243 638.131 374.233 638.796 375.61C639.463 376.985 639.798 378.829 639.802 381.138C639.812 386.618 638.615 390.889 636.212 393.949Z" fill="#23398D"/>
<path d="M702.423 433.553C705.701 431.186 708.557 427.722 710.995 423.157L711.205 423.119L711.221 432.495L721.588 430.569L730.083 379.399L698.359 385.295L695.767 400.806L713.044 397.595C712.351 400.637 711.467 403.478 710.389 406.119C709.309 408.762 707.952 411.089 706.315 413.107C704.677 415.127 702.725 416.835 700.461 418.241C698.191 419.647 695.488 420.643 692.347 421.226C689.347 421.783 686.78 421.618 684.648 420.729C682.516 419.842 680.768 418.431 679.404 416.498C678.04 414.57 677.023 412.253 676.355 409.55C675.685 406.85 675.351 403.913 675.345 400.745C675.337 396.378 675.815 391.816 676.785 387.054C677.753 382.291 679.231 377.861 681.215 373.766C683.196 369.674 685.739 366.163 688.841 363.227C691.943 360.299 695.588 358.442 699.777 357.665C704.383 356.809 708.016 357.314 710.673 359.173C713.328 361.036 714.767 364.774 714.987 370.383L731.427 367.331C731.416 361.683 730.569 356.978 728.888 353.221C727.204 349.466 724.929 346.525 722.064 344.403C719.196 342.282 715.84 340.935 712 340.362C708.159 339.793 704.04 339.914 699.64 340.732C693.359 341.898 687.689 344.451 682.635 348.389C677.579 352.326 673.293 357.17 669.779 362.914C666.26 368.666 663.568 375.054 661.695 382.083C659.821 389.112 658.891 396.351 658.904 403.798C658.928 416.901 661.825 426.382 667.596 432.246C673.367 438.114 681.557 440.061 692.167 438.087C695.727 437.427 699.145 435.913 702.423 433.553Z" fill="#23398D"/>
<path fill-rule="evenodd" clip-rule="evenodd" d="M781.106 327.783C784.875 327.083 788.262 326.755 791.263 326.797C794.267 326.837 796.818 327.457 798.914 328.649C801.01 329.845 802.62 331.733 803.743 334.304C804.863 336.881 805.431 340.353 805.439 344.72C805.443 347.289 805.13 349.851 804.508 352.408C803.883 354.965 802.96 357.319 801.744 359.472C800.526 361.625 799.063 363.504 797.355 365.105C795.646 366.705 793.676 367.888 791.444 368.644V368.901C795.006 369.441 797.748 371.22 799.676 374.245C801.6 377.271 802.567 381.012 802.575 385.463C802.584 390.428 801.807 394.94 800.243 399.001C798.678 403.06 796.572 406.579 793.923 409.551C791.275 412.531 788.242 414.976 784.826 416.893C781.404 418.813 777.814 420.125 774.043 420.825L734.256 428.216L749.695 333.616L781.106 327.783ZM777.927 365.503C780.928 364.945 783.526 363.456 785.722 361.033C787.916 358.615 789.011 355.395 789.004 351.365C788.998 347.773 788.208 345.457 786.634 344.419C785.063 343.387 782.95 343.115 780.298 343.608L762.914 346.837L759.29 368.965L777.927 365.503ZM773.284 405.293C777.052 404.593 780.139 402.777 782.543 399.845C784.947 396.917 786.143 393.012 786.135 388.133C786.131 385.735 785.724 383.923 784.922 382.703C784.116 381.483 783.084 380.625 781.827 380.131C780.571 379.636 779.172 379.448 777.636 379.561C776.1 379.675 774.6 379.864 773.134 380.139L757.01 383.135L752.655 409.124L773.284 405.293Z" fill="#23398D"/>
<path fill-rule="evenodd" clip-rule="evenodd" d="M824.846 334.11C821.329 339.861 818.635 346.249 816.762 353.276C814.89 360.309 813.959 367.548 813.973 374.996C813.997 388.096 816.894 397.577 822.663 403.441C828.435 409.309 836.626 411.254 847.234 409.284C853.795 408.065 859.605 405.466 864.661 401.488C869.718 397.506 873.967 392.586 877.414 386.72C880.859 380.857 883.485 374.332 885.287 367.145C887.09 359.956 887.985 352.597 887.971 345.061C887.959 338.64 887.165 333.133 885.586 328.548C884.006 323.957 881.782 320.258 878.915 317.449C876.046 314.642 872.551 312.788 868.433 311.882C864.307 310.978 859.735 310.994 854.709 311.929C848.427 313.093 842.758 315.644 837.703 319.584C832.646 323.521 828.361 328.365 824.846 334.11ZM834.471 387.693C833.109 385.765 832.09 383.448 831.422 380.745C830.753 378.046 830.417 375.108 830.41 371.94C830.403 367.573 830.883 363.009 831.851 358.249C832.823 353.486 834.298 349.056 836.283 344.961C838.266 340.87 840.806 337.356 843.91 334.424C847.011 331.493 850.657 329.637 854.846 328.86C857.917 328.288 860.502 328.45 862.598 329.345C864.691 330.242 866.405 331.637 867.735 333.53C869.063 335.428 870.029 337.75 870.629 340.509C871.227 343.27 871.53 346.273 871.535 349.525C871.543 353.894 871.043 358.441 870.039 363.165C869.035 367.893 867.525 372.304 865.506 376.406C863.49 380.508 860.979 384.014 857.985 386.925C854.986 389.837 851.462 391.669 847.415 392.422C844.414 392.98 841.847 392.813 839.715 391.924C837.583 391.034 835.838 389.625 834.471 387.693Z" fill="#23398D"/>
<path d="M923.82 301.271L944.248 362.743L944.459 362.703L955.021 295.476L970.1 292.676L954.452 387.311L938.013 390.366L917.376 329.836L917.167 329.874L906.601 396.2L891.315 399.042L906.856 304.424L923.82 301.271Z" fill="#23398D"/>
<path d="M1027.63 365.436C1030.41 361.534 1032.66 356.9 1034.36 351.529C1036.06 346.161 1037.46 340.077 1038.57 333.276L1047.58 278.281L1031.14 281.336L1021.92 337.394C1021.3 340.937 1020.62 344.188 1019.9 347.146C1019.17 350.112 1018.16 352.673 1016.87 354.84C1015.58 357.006 1013.89 358.822 1011.8 360.28C1009.71 361.738 1006.99 362.78 1003.64 363.402C1000.77 363.934 998.437 363.941 996.621 363.42C994.803 362.904 993.373 362.118 992.323 361.072C991.274 360.025 990.555 358.813 990.167 357.426C989.781 356.042 989.587 354.793 989.586 353.68C989.585 352.909 989.634 352.021 989.737 351.017C989.839 350.014 989.978 348.941 990.151 347.793C990.325 346.65 990.498 345.565 990.67 344.548C990.841 343.53 990.997 342.625 991.134 341.83L1000.15 287.094L983.713 290.146L974.698 344.884C974.35 347.174 974.005 349.488 973.662 351.818C973.315 354.154 973.145 356.476 973.149 358.788C973.158 363.84 974.021 367.94 975.738 371.09C977.453 374.24 979.69 376.606 982.454 378.192C985.214 379.78 988.359 380.716 991.885 381.001C995.411 381.286 998.99 381.096 1002.62 380.421C1008.41 379.345 1013.33 377.553 1017.38 375.048C1021.42 372.54 1024.84 369.334 1027.63 365.436Z" fill="#23398D"/>
<path d="M1063.83 344.706C1064.6 346.743 1065.72 348.27 1067.19 349.283C1068.66 350.294 1070.4 350.897 1072.43 351.073C1074.46 351.254 1076.66 351.122 1079.03 350.682C1080.71 350.37 1082.38 349.803 1084.05 348.978C1085.73 348.151 1087.25 347.101 1088.61 345.819C1089.97 344.539 1091.08 343.009 1091.95 341.215C1092.82 339.427 1093.25 337.375 1093.25 335.066C1093.24 332.841 1092.68 331.125 1091.56 329.918C1090.44 328.714 1088.99 327.763 1087.21 327.066C1085.43 326.369 1083.4 325.846 1081.13 325.497C1078.86 325.147 1076.58 324.759 1074.27 324.333C1071.89 323.917 1069.59 323.317 1067.35 322.531C1065.12 321.747 1063.11 320.582 1061.33 319.027C1059.54 317.475 1058.11 315.43 1057.02 312.889C1055.93 310.35 1055.38 307.113 1055.38 303.171C1055.37 298.034 1056.23 293.505 1057.97 289.586C1059.71 285.665 1061.97 282.313 1064.77 279.526C1067.55 276.738 1070.71 274.481 1074.23 272.757C1077.75 271.029 1081.33 269.831 1084.96 269.155C1088.8 268.443 1092.41 268.307 1095.8 268.75C1099.19 269.19 1102.16 270.374 1104.71 272.295C1107.26 274.221 1109.29 276.903 1110.8 280.35C1112.3 283.797 1113.06 288.175 1113.07 293.483L1097.47 296.382C1097.53 293.801 1097.24 291.691 1096.57 290.061C1095.9 288.43 1094.96 287.171 1093.74 286.282C1092.51 285.399 1091.06 284.874 1089.39 284.714C1087.71 284.557 1085.93 284.649 1084.05 285.001C1082.51 285.283 1080.96 285.766 1079.39 286.443C1077.82 287.121 1076.41 288.023 1075.15 289.159C1073.89 290.29 1072.89 291.657 1072.12 293.254C1071.35 294.853 1070.97 296.722 1070.98 298.862C1070.98 301.09 1071.67 302.825 1073.03 304.069C1074.39 305.315 1076.03 306.253 1077.96 306.879C1079.88 307.509 1081.85 307.911 1083.88 308.093C1085.9 308.275 1087.54 308.418 1088.8 308.526C1091.74 308.925 1094.42 309.517 1096.87 310.305C1099.31 311.091 1101.43 312.306 1103.21 313.943C1104.99 315.581 1106.38 317.723 1107.36 320.369C1108.34 323.01 1108.84 326.389 1108.85 330.497C1108.86 335.978 1107.94 340.815 1106.09 345.013C1104.25 349.207 1101.88 352.777 1098.99 355.711C1096.1 358.646 1092.84 360.987 1089.21 362.73C1085.58 364.474 1081.99 365.678 1078.43 366.339C1067.96 368.283 1060.15 367.121 1055.01 362.853C1049.87 358.582 1047.29 350.842 1047.27 339.622L1062.87 336.726C1062.74 340.006 1063.06 342.663 1063.83 344.706Z" fill="#23398D"/>
<path d="M1129.84 354.734L1133.26 334.314L1116.71 337.386L1113.4 357.787L1129.84 354.734Z" fill="#23398D"/>
<path fill-rule="evenodd" clip-rule="evenodd" d="M1194.59 250.974C1197.94 250.269 1201 250.065 1203.76 250.364C1206.52 250.666 1208.87 251.598 1210.83 253.162C1212.79 254.728 1214.29 256.952 1215.35 259.84C1216.4 262.728 1216.93 266.4 1216.94 270.849C1216.94 273.929 1216.53 276.964 1215.69 279.944C1214.86 282.926 1213.68 285.649 1212.15 288.121C1210.62 290.586 1208.81 292.746 1206.71 294.589C1204.62 296.434 1202.32 297.805 1199.81 298.697V298.953C1202.88 299.585 1204.95 301.277 1206 304.037C1207.05 306.794 1207.58 310.017 1207.59 313.7C1207.59 315.754 1207.51 318.23 1207.34 321.133C1207.17 324.034 1207.08 326.894 1207.09 329.718C1207.09 331.776 1207.17 333.71 1207.31 335.526C1207.45 337.338 1207.73 338.893 1208.15 340.185L1192.14 343.161C1191.93 342.09 1191.75 341.072 1191.61 340.113C1191.46 339.157 1191.39 338.161 1191.39 337.132C1191.39 334.05 1191.52 330.924 1191.79 327.742C1192.07 324.569 1192.2 321.438 1192.2 318.356C1192.19 316.13 1191.93 314.36 1191.4 313.041C1190.87 311.728 1190.14 310.728 1189.2 310.05C1188.25 309.369 1187.12 309 1185.79 308.944C1184.46 308.894 1183 309.014 1181.39 309.313L1165.9 312.193L1159.78 349.173L1143.45 352.208L1158.89 257.606L1194.59 250.974ZM1183.57 294.522C1185.8 294.106 1187.93 293.432 1189.95 292.5C1191.98 291.568 1193.77 290.378 1195.34 288.928C1196.91 287.48 1198.16 285.749 1199.1 283.734C1200.04 281.717 1200.51 279.424 1200.5 276.856C1200.5 274.374 1200.16 272.446 1199.5 271.068C1198.83 269.697 1197.94 268.725 1196.82 268.162C1195.7 267.598 1194.41 267.328 1192.94 267.34C1191.48 267.357 1189.94 267.516 1188.34 267.812L1172.74 270.712L1168.38 297.341L1183.57 294.522Z" fill="#23398D"/>
<path d="M1277.77 318.969C1280.55 315.068 1282.8 310.433 1284.5 305.063C1286.2 299.695 1287.61 293.612 1288.71 286.809L1297.73 231.816L1281.29 234.869L1272.06 290.929C1271.44 294.471 1270.77 297.723 1270.04 300.681C1269.31 303.645 1268.3 306.211 1267.01 308.375C1265.73 310.541 1264.04 312.356 1261.94 313.815C1259.85 315.273 1257.13 316.313 1253.78 316.937C1250.92 317.468 1248.58 317.476 1246.76 316.953C1244.95 316.439 1243.51 315.653 1242.47 314.607C1241.41 313.56 1240.7 312.347 1240.31 310.96C1239.92 309.576 1239.73 308.328 1239.73 307.213C1239.73 306.444 1239.78 305.556 1239.88 304.552C1239.98 303.548 1240.12 302.475 1240.29 301.328C1240.47 300.184 1240.64 299.1 1240.81 298.081L1240.87 297.722C1241.02 296.851 1241.16 296.064 1241.28 295.364L1250.29 240.629L1233.86 243.68L1224.84 298.419C1224.49 300.708 1224.15 303.023 1223.8 305.353C1223.46 307.689 1223.29 310.009 1223.29 312.323C1223.3 317.375 1224.16 321.475 1225.88 324.624C1227.59 327.773 1229.83 330.141 1232.6 331.727C1235.36 333.313 1238.5 334.249 1242.03 334.536C1245.55 334.821 1249.13 334.629 1252.76 333.956C1258.56 332.879 1263.47 331.088 1267.52 328.583C1271.57 326.075 1274.98 322.869 1277.77 318.969Z" fill="#23398D"/>
<path d="M26.1279 321.359C26.1279 476.495 150.832 602.259 304.661 602.259C458.489 602.259 583.195 476.495 583.195 321.359C583.195 166.224 458.489 40.4615 304.661 40.4615C150.832 40.4615 26.1279 166.224 26.1279 321.359Z" fill="url(#paint1_radial)"/>
<path d="M613.728 167.051L598.458 169.804H598.456L586.066 242.576C586.066 242.577 586.067 242.579 586.068 242.579L601.342 239.825V239.824L605.279 216.787L605.28 216.785L615.615 205.54H615.619L632.379 234.228H632.38L649.6 231.125C649.6 231.125 649.601 231.124 649.601 231.123L649.602 231.121L627.114 193.685V193.683L659.655 158.775C659.656 158.773 659.652 158.772 659.652 158.772L639.42 162.42H639.419L608.736 197.489L608.542 197.525L613.732 167.052L613.731 167.051C613.73 167.051 613.729 167.051 613.728 167.051Z" fill="white"/>
<path d="M673.828 226.659C677.296 227.152 681.042 227.038 685.065 226.314C690.905 225.26 696.142 223.162 700.78 220.02C705.417 216.88 709.317 213.066 712.482 208.576C715.644 204.088 718.032 199.128 719.637 193.702C721.242 188.275 721.962 182.71 721.8 177.01C721.654 171.966 720.829 167.651 719.326 164.068C717.821 160.488 715.733 157.62 713.065 155.467C710.393 153.314 707.19 151.899 703.454 151.22C699.72 150.546 695.58 150.618 691.04 151.435C687.472 152.078 684.046 153.142 680.764 154.619C677.481 156.102 674.454 158.048 671.689 160.455C668.922 162.867 666.51 165.771 664.456 169.168C662.401 172.57 660.817 176.508 659.706 180.988C659.706 180.989 659.707 180.989 659.707 180.99C659.707 180.99 659.708 180.991 659.709 180.991L674.789 178.271L674.79 178.27C675.33 176.66 676.1 175.074 677.098 173.508C678.096 171.947 679.262 170.536 680.596 169.272C681.925 168.018 683.402 166.944 685.034 166.059C686.81 165.094 688.766 164.451 690.762 164.135C693.326 163.73 695.546 163.808 697.426 164.362C699.429 164.955 701.089 165.924 702.398 167.27C703.708 168.615 704.717 170.26 705.424 172.207C706.133 174.152 706.553 176.268 706.681 178.55V178.551L682.065 182.988L679.877 195.432C679.877 195.433 679.877 195.433 679.878 195.434L679.879 195.434L679.88 195.435L705.66 190.787L705.662 190.79C705.021 193.474 704.118 196.071 702.953 198.587C701.785 201.103 700.334 203.39 698.601 205.447C696.866 207.504 694.848 209.251 692.54 210.688C690.236 212.124 687.588 213.112 684.604 213.651C680.909 214.319 677.874 213.714 675.506 211.832C673.137 209.956 671.893 206.855 671.768 202.53L671.767 202.529L671.765 202.528L656.492 205.282L656.49 205.283C656.548 209.555 657.304 213.187 658.76 216.186C660.214 219.183 662.222 221.555 664.781 223.3C667.341 225.047 670.356 226.164 673.828 226.659Z" fill="white"/>
<path d="M738.573 144.543L753.844 141.791C753.844 141.791 753.844 141.791 753.845 141.791C753.845 141.791 753.844 141.79 753.845 141.791C753.845 141.791 753.846 141.792 753.846 141.793L743.518 201.149L743.521 201.151L766.482 197.013L776.812 137.651L792.088 134.898C792.089 134.898 792.09 134.899 792.09 134.901L781.758 194.257C781.758 194.258 781.76 194.259 781.76 194.259L804.72 190.118H804.721L815.052 130.757L830.328 128.003C830.328 128.003 830.33 128.005 830.33 128.006L817.646 200.829H817.645L725.989 217.353H725.986L738.572 144.545L738.573 144.543Z" fill="white"/>
<path fill-rule="evenodd" clip-rule="evenodd" d="M895.421 116.269L843.952 125.546L843.951 125.548L831.268 198.37L831.271 198.373L864.057 192.462C865.747 192.158 867.465 191.817 869.215 191.434C870.963 191.053 872.692 190.56 874.405 189.954C876.115 189.352 877.789 188.638 879.428 187.814C881.067 186.992 882.587 185.994 883.988 184.818C887.515 181.896 890.215 178.248 892.085 173.876C893.124 171.45 893.791 168.865 894.06 166.241C894.44 162.546 894.132 159.249 893.149 156.346C892.508 154.452 891.631 152.798 890.513 151.386C889.397 149.974 888.059 148.83 886.503 147.96C884.945 147.088 883.217 146.526 881.319 146.276C879.749 146.1 878.004 146.066 876.084 146.182C874.163 146.298 871.843 146.601 869.119 147.092L854.427 149.741C854.425 149.741 854.424 149.74 854.424 149.74L856.671 135.998L856.672 135.997L893.257 129.401H893.259L895.424 116.269C895.424 116.269 895.423 116.268 895.421 116.269ZM871.425 178.144C869.847 178.79 868.147 179.277 866.332 179.602L848.236 182.866C848.235 182.866 848.233 182.865 848.233 182.864L851.855 162.454V162.453L865.673 159.964C867.359 159.66 868.983 159.452 870.544 159.333C872.107 159.217 873.511 159.341 874.76 159.708C876.011 160.077 877.008 160.784 877.755 161.837C878.501 162.888 878.907 164.43 878.964 166.461C879.023 168.492 878.747 170.269 878.137 171.796C877.528 173.322 876.653 174.597 875.509 175.628C874.365 176.657 873.004 177.497 871.425 178.144Z" fill="white"/>
<path d="M931.922 181.809C927.899 182.533 924.154 182.649 920.686 182.154C917.212 181.661 914.198 180.542 911.639 178.796C909.079 177.053 907.07 174.68 905.616 171.681C904.162 168.684 903.406 165.05 903.347 160.778V160.777L918.622 158.024L918.625 158.026C918.749 162.352 919.995 165.452 922.365 167.328C924.73 169.209 927.764 169.814 931.462 169.146C934.446 168.61 937.092 167.622 939.398 166.185C941.703 164.749 943.726 163.002 945.458 160.942C947.191 158.885 948.641 156.6 949.809 154.082C950.975 151.569 951.879 148.969 952.521 146.285C952.521 146.285 952.52 146.284 952.52 146.284C952.52 146.283 952.519 146.282 952.519 146.282L926.738 150.93C926.738 150.93 926.737 150.93 926.736 150.93C926.736 150.929 926.735 150.928 926.735 150.928L928.921 138.484H928.922L953.539 134.046V134.045C953.409 131.765 952.988 129.648 952.283 127.702C951.575 125.757 950.564 124.11 949.255 122.765C947.947 121.42 946.286 120.45 944.282 119.857C942.407 119.305 940.189 119.228 937.629 119.63C935.629 119.945 933.67 120.586 931.891 121.554C930.262 122.44 928.783 123.513 927.451 124.768C926.119 126.032 924.952 127.442 923.955 129.004C922.955 130.569 922.189 132.156 921.647 133.768L921.646 133.769L906.567 136.486C906.566 136.486 906.565 136.485 906.565 136.485C907.675 132.006 909.258 128.065 911.314 124.665C913.367 121.266 915.778 118.364 918.546 115.952C921.312 113.544 924.338 111.598 927.619 110.117C930.902 108.637 934.328 107.573 937.898 106.932C942.438 106.113 946.575 106.041 950.312 106.716C954.047 107.394 957.25 108.81 959.921 110.962C962.591 113.116 964.676 115.984 966.182 119.564C967.686 123.146 968.511 127.461 968.656 132.508C968.819 138.208 968.098 143.77 966.494 149.197C964.888 154.624 962.502 159.584 959.338 164.072C956.172 168.561 952.274 172.376 947.635 175.518C942.998 178.657 937.763 180.756 931.922 181.809Z" fill="white"/>
<path d="M1000.51 97.3216L985.236 100.075L972.844 172.848C972.844 172.848 972.845 172.85 972.846 172.85L988.12 170.096L988.121 170.095L992.056 147.06V147.059L1002.4 135.812L1002.4 135.814L1019.16 164.5C1019.16 164.502 1019.16 164.502 1019.16 164.502L1036.38 161.396C1036.38 161.395 1036.38 161.394 1036.38 161.392L1013.89 123.959V123.956L1046.43 89.047C1046.43 89.0443 1046.43 89.043 1046.43 89.043L1026.2 92.691L995.516 127.763L995.32 127.798L1000.51 97.3243C1000.51 97.323 1000.51 97.3216 1000.51 97.3216Z" fill="white"/>
<g filter="url(#filter0_d)">
<path fill-rule="evenodd" clip-rule="evenodd" d="M113.456 350.834L77.9011 356.137L70.2825 401.857L60.5931 403.321L57.9011 419.754L67.7051 418.253L68.8705 411.149L104.036 405.873L102.894 412.966L112.641 411.503L115.284 395.111L105.712 396.571L113.456 350.834ZM95.9745 398.011L80.1518 400.382L86.0945 363.993L102.113 361.585L95.9745 398.011Z" fill="white"/>
<path fill-rule="evenodd" clip-rule="evenodd" d="M119.882 369.8C120.966 365.812 122.522 362.188 124.557 358.926C126.587 355.666 129.065 352.916 131.989 350.684C134.91 348.448 138.189 347.002 141.819 346.34C144.725 345.81 147.367 345.802 149.753 346.312C152.134 346.827 154.154 347.879 155.811 349.471C157.469 351.066 158.755 353.164 159.667 355.768C160.579 358.37 161.041 361.494 161.046 365.138C161.054 369.412 160.537 373.587 159.495 377.667C158.451 381.746 156.935 385.447 154.942 388.774C152.95 392.102 150.494 394.894 147.57 397.152C144.647 399.411 141.29 400.884 137.497 401.576C131.363 402.694 126.63 401.591 123.293 398.262C119.958 394.935 118.283 389.555 118.27 382.123C118.262 377.896 118.801 373.79 119.882 369.8ZM128.357 385.384C128.742 386.918 129.33 388.232 130.119 389.327C130.909 390.422 131.918 391.222 133.15 391.727C134.383 392.231 135.866 392.326 137.602 392.01C139.941 391.582 141.978 390.542 143.711 388.89C145.442 387.239 146.894 385.248 148.059 382.922C149.226 380.594 150.099 378.092 150.681 375.411C151.261 372.73 151.55 370.15 151.546 367.671C151.542 365.826 151.366 364.122 151.022 362.555C150.675 360.99 150.117 359.672 149.35 358.595C148.579 357.522 147.589 356.731 146.379 356.222C145.167 355.714 143.673 355.622 141.898 355.947C139.475 356.387 137.369 357.44 135.577 359.103C133.782 360.767 132.313 362.76 131.167 365.082C130.019 367.406 129.166 369.918 128.606 372.622C128.045 375.322 127.767 377.912 127.773 380.388C127.775 382.187 127.97 383.854 128.357 385.384Z" fill="white"/>
<path d="M198.305 309.917L181.231 393.701L208.087 389.648L234.407 260.469L213.777 263.581C211.525 268.813 208.945 273.196 206.041 276.732C203.135 280.273 199.933 283.23 196.438 285.605C192.939 287.982 189.146 289.866 185.055 291.257C180.965 292.65 176.607 293.813 171.983 294.75L167.893 314.505L198.305 309.917Z" fill="white"/>
<path fill-rule="evenodd" clip-rule="evenodd" d="M237.6 299.888C235.524 306.283 233.952 312.72 232.886 319.201C231.82 325.683 231.286 331.904 231.286 337.865C231.286 344.304 231.996 350.309 233.42 355.877C234.843 361.448 237.095 366.207 240.179 370.152C243.262 374.1 247.32 376.976 252.36 378.779C257.399 380.581 263.476 380.947 270.59 379.872C277.584 378.817 283.928 376.667 289.62 373.425C295.31 370.183 300.407 366.193 304.914 361.459C309.418 356.727 313.362 351.36 316.74 345.364C320.12 339.372 322.904 333.167 325.1 326.752C327.292 320.34 328.923 313.807 329.991 307.145C331.058 300.485 331.592 294.113 331.592 288.032C331.592 280.997 330.73 274.719 329.012 269.192C327.292 263.669 324.712 259.081 321.275 255.424C317.835 251.771 313.51 249.173 308.294 247.635C303.074 246.096 296.97 245.855 289.975 246.911C283.334 247.913 277.259 250.021 271.747 253.237C266.232 256.456 261.311 260.448 256.986 265.213C252.655 269.98 248.863 275.355 245.603 281.329C242.339 287.308 239.672 293.493 237.6 299.888ZM259.919 354.205C258.614 352.435 257.696 350.247 257.163 347.645C256.628 345.043 256.362 342.252 256.362 339.271C256.362 336.291 256.567 332.561 256.986 328.085C257.399 323.613 258.079 318.86 259.03 313.825C259.978 308.795 261.252 303.683 262.852 298.492C264.454 293.304 266.439 288.561 268.811 284.268C271.183 279.976 273.968 276.365 277.171 273.436C280.371 270.511 284.044 268.732 288.195 268.107C291.398 267.623 294.155 267.807 296.466 268.647C298.778 269.492 300.674 270.816 302.158 272.617C303.639 274.424 304.706 276.647 305.359 279.289C306.01 281.936 306.336 284.808 306.336 287.908C306.336 290.768 306.13 294.408 305.715 298.823C305.296 303.24 304.587 307.965 303.58 313.007C302.571 318.049 301.238 323.139 299.579 328.279C297.916 333.419 295.903 338.133 293.532 342.425C291.158 346.72 288.343 350.337 285.084 353.271C281.822 356.209 278.06 357.997 273.791 358.641C270.35 359.161 267.506 358.993 265.255 358.14C263 357.289 261.222 355.976 259.919 354.205Z" fill="white"/>
<path fill-rule="evenodd" clip-rule="evenodd" d="M517.536 293.212C518.587 289.352 520.164 285.832 522.268 282.65C524.371 279.469 527.02 276.777 530.219 274.576C533.416 272.374 537.122 270.957 541.326 270.324C547.899 269.332 553.003 270.236 556.64 273.036C560.275 275.837 562.094 280.586 562.094 287.284C562.094 291.337 561.502 295.349 560.32 299.317C559.136 303.285 557.406 306.894 555.128 310.146C552.848 313.398 550.044 316.134 546.715 318.357C543.383 320.577 539.572 322.012 535.28 322.66C528.883 323.624 524.063 322.414 520.823 319.024C517.579 315.636 515.958 310.9 515.958 304.818C515.958 300.942 516.484 297.072 517.536 293.212ZM530.878 311.094C531.884 312.574 533.658 313.121 536.2 312.737C538.567 312.381 540.539 311.157 542.115 309.069C543.692 306.981 544.962 304.586 545.928 301.884C546.89 299.184 547.591 296.412 548.03 293.569C548.467 290.728 548.687 288.381 548.687 286.529C548.687 284.678 548.139 283.065 547.044 281.688C545.948 280.313 544.392 279.774 542.379 280.078C539.835 280.462 537.732 281.618 536.07 283.541C534.404 285.469 533.066 287.697 532.059 290.228C531.054 292.758 530.351 295.377 529.958 298.08C529.564 300.784 529.366 303.15 529.366 305.176C529.366 307.644 529.868 309.617 530.878 311.094Z" fill="white"/>
<path d="M549.607 223.333L479.024 332.202L467.72 333.908L538.436 225.018L549.607 223.333Z" fill="white"/>
<path fill-rule="evenodd" clip-rule="evenodd" d="M455.892 257.83C456.943 253.97 458.52 250.45 460.623 247.268C462.726 244.088 465.376 241.396 468.576 239.194C471.774 236.993 475.475 235.576 479.682 234.941C486.254 233.949 491.356 234.853 494.995 237.653C498.628 240.456 500.448 245.205 500.448 251.901C500.448 255.956 499.858 259.966 498.675 263.934C497.491 267.902 495.762 271.512 493.483 274.764C491.204 278.017 488.4 280.776 485.071 283.041C481.74 285.308 477.93 286.761 473.635 287.409C467.238 288.374 462.419 287.142 459.178 283.708C455.934 280.277 454.314 275.518 454.314 269.437C454.314 265.56 454.84 261.69 455.892 257.83ZM469.232 275.714C470.239 277.193 472.014 277.738 474.556 277.354C476.922 276.998 478.894 275.776 480.471 273.686C482.048 271.598 483.318 269.205 484.283 266.502C485.246 263.801 485.946 261.03 486.386 258.186C486.823 255.345 487.042 252.998 487.042 251.149C487.042 249.297 486.494 247.684 485.4 246.305C484.303 244.929 482.747 244.392 480.735 244.696C478.191 245.08 476.088 246.236 474.424 248.161C472.759 250.086 471.422 252.314 470.416 254.845C469.407 257.378 468.706 259.996 468.314 262.698C467.918 265.402 467.72 267.768 467.72 269.794C467.72 272.262 468.224 274.236 469.232 275.714Z" fill="white"/>
<path fill-rule="evenodd" clip-rule="evenodd" d="M345.934 283.454C343.858 289.849 342.286 296.287 341.219 302.767C340.154 309.25 339.619 315.47 339.619 321.433C339.619 327.87 340.33 333.875 341.754 339.443C343.176 345.015 345.427 349.774 348.512 353.719C351.594 357.666 355.654 360.542 360.694 362.346C365.731 364.147 371.81 364.513 378.923 363.439C385.918 362.385 392.26 360.234 397.952 356.993C403.643 353.749 408.74 349.759 413.247 345.025C417.751 340.294 421.695 334.926 425.074 328.931C428.454 322.938 431.238 316.733 433.432 310.319C435.626 303.907 437.256 297.373 438.324 290.711C439.391 284.053 439.926 277.681 439.926 271.598C439.926 264.565 439.063 258.286 437.346 252.759C435.626 247.237 433.046 242.647 429.608 238.991C426.167 235.337 421.843 232.739 416.627 231.202C411.407 229.662 405.303 229.422 398.307 230.477C391.666 231.479 385.591 233.589 380.079 236.805C374.566 240.023 369.644 244.014 365.318 248.781C360.988 253.546 357.195 258.921 353.936 264.897C350.672 270.874 348.006 277.059 345.934 283.454ZM368.252 337.771C366.947 336.001 366.03 333.814 365.496 331.213C364.962 328.61 364.695 325.818 364.695 322.837C364.695 319.858 364.9 316.127 365.318 311.653C365.731 307.179 366.412 302.427 367.363 297.393C368.311 292.361 369.586 287.249 371.186 282.059C372.787 276.87 374.772 272.129 377.144 267.834C379.515 263.542 382.302 259.931 385.504 257.003C388.704 254.077 392.378 252.299 396.528 251.673C399.731 251.19 402.488 251.373 404.799 252.214C407.111 253.058 409.007 254.383 410.491 256.185C411.972 257.99 413.038 260.214 413.692 262.857C414.343 265.503 414.67 268.374 414.67 271.474C414.67 274.335 414.463 277.974 414.048 282.39C413.63 286.806 412.92 291.533 411.914 296.574C410.904 301.615 409.571 306.706 407.912 311.845C406.25 316.986 404.236 321.699 401.866 325.993C399.491 330.286 396.676 333.903 393.418 336.838C390.155 339.775 386.394 341.563 382.124 342.207C378.683 342.727 375.839 342.561 373.588 341.706C371.332 340.857 369.555 339.542 368.252 337.771Z" fill="white"/>
</g>
<defs>
<filter id="filter0_d" x="56.9011" y="222.333" width="520.193" height="212.421" filterUnits="userSpaceOnUse" color-interpolation-filters="sRGB">
<feFlood flood-opacity="0" result="BackgroundImageFix"/>
<feColorMatrix in="SourceAlpha" type="matrix" values="0 0 0 0 0 0 0 0 0 0 0 0 0 0 0 0 0 0 127 0" result="hardAlpha"/>
<feOffset dx="7" dy="7"/>
<feGaussianBlur stdDeviation="4"/>
<feComposite in2="hardAlpha" operator="out"/>
<feColorMatrix type="matrix" values="0 0 0 0 0 0 0 0 0 0 0 0 0 0 0 0 0 0 0.28 0"/>
<feBlend mode="normal" in2="BackgroundImageFix" result="effect1_dropShadow"/>
<feBlend mode="normal" in="SourceGraphic" in2="effect1_dropShadow" result="shape"/>
</filter>
<radialGradient id="paint0_radial" cx="0" cy="0" r="1" gradientUnits="userSpaceOnUse" gradientTransform="translate(224.379 -152.879) rotate(50.9384) scale(942.019 936.739)">
<stop stop-color="#EAF6FD"/>
<stop offset="0.0639885" stop-color="#EAF6FD"/>
<stop offset="0.225486" stop-color="#00A6E6"/>
<stop offset="0.339787" stop-color="#00A6E6"/>
<stop offset="0.667598" stop-color="#0059A5"/>
<stop offset="0.673636" stop-color="#0059A5"/>
<stop offset="0.868715" stop-color="#004F9E"/>
<stop offset="1" stop-color="#004F9E"/>
</radialGradient>
<radialGradient id="paint1_radial" cx="0" cy="0" r="1" gradientUnits="userSpaceOnUse" gradientTransform="translate(304.661 321.36) scale(278.966 280.464)">
<stop stop-color="#009EE2"/>
<stop offset="0.345974" stop-color="#009EE2"/>
<stop offset="0.432961" stop-color="#0096DC"/>
<stop offset="0.434527" stop-color="#0096DC"/>
<stop offset="1" stop-color="#014898"/>
</radialGradient>
</defs>
</svg>
