<svg width="76" height="107" viewBox="0 0 76 107" fill="none" xmlns="http://www.w3.org/2000/svg">
<g filter="url(#filter0_i)">
<path d="M75.4134 37.9016C75.4134 58.1008 52.9209 96.1471 38.9485 97.77C38.7616 97.7917 39.5917 103.092 44.5948 105.176C44.3976 105.743 35.9319 108.187 32.0869 105.176C37.646 103.37 37.4219 97.7998 37.2613 97.7836C23.2985 96.375 0.671143 58.1613 0.671143 37.9016C0.671143 17.2596 17.4028 0.526001 38.0423 0.526001C58.6818 0.526001 75.4134 17.2596 75.4134 37.9016Z" fill="url(#paint0_radial)"/>
</g>
<g filter="url(#filter1_i)">
<path d="M75.4134 37.9016C75.4134 58.1008 52.9209 96.1471 38.9485 97.77C38.7616 97.7917 39.5917 103.092 44.5948 105.176C44.3976 105.743 35.9319 108.187 32.0869 105.176C37.646 103.37 37.4219 97.7998 37.2613 97.7836C23.2985 96.375 0.671143 58.1613 0.671143 37.9016C0.671143 17.2596 17.4028 0.526001 38.0423 0.526001C58.6818 0.526001 75.4134 17.2596 75.4134 37.9016Z" fill="url(#paint1_radial)"/>
</g>
<g opacity="0.2" filter="url(#filter2_f)">
<path d="M25.2091 17.909C23.6941 15.3394 20.4026 14.5322 18.2113 16.5562C13.359 21.0381 6.47635 30.0386 9.59696 43.2691C10.3745 46.5658 14.2756 47.6701 17.0686 45.7539L20.3135 43.5279C21.9169 42.4279 22.7662 40.5484 22.7977 38.6042C22.8885 32.9818 24.5257 28.6622 25.9455 25.9534C27.0207 23.902 27.2425 21.3578 26.0661 19.3626L25.2091 17.909Z" fill="white"/>
</g>
<g opacity="0.1" filter="url(#filter3_f)">
<path d="M41.7518 81.9076C43.8738 83.558 46.8604 83.4013 48.6633 81.4072C57.2925 71.863 79.4113 43.934 65.607 21.637C64.4323 19.7396 62.0671 19.0379 59.9357 19.6993L49.9824 22.7877C47.39 23.5922 45.8154 26.2108 46.1677 28.9023C49.1457 51.6527 43.652 65.2485 39.5026 71.9255C37.7141 74.8034 37.9767 78.9714 40.6513 81.0516L41.7518 81.9076Z" fill="white"/>
</g>
<path d="M27.8467 31.2828H46.8389M27.8467 36.4993H46.8389M30.8467 51.2103V58.5135M41.0908 51.2103V58.5135M44.8389 51.2103V58.5135M20.9884 24.762H53.6972L54.6972 66.1905L50.6086 68.3384L46.52 66.1905L42.4314 68.3384L38.3428 66.1905L34.2542 68.3384L30.1656 66.1905L26.077 68.3384L21.9884 66.1905L20.9884 24.762Z" stroke="#FFF200" stroke-width="2.57402" stroke-linecap="round" stroke-linejoin="round"/>
<defs>
<filter id="filter0_i" x="0.671143" y="0.526001" width="74.7423" height="106.124" filterUnits="userSpaceOnUse" color-interpolation-filters="sRGB">
<feFlood flood-opacity="0" result="BackgroundImageFix"/>
<feBlend mode="normal" in="SourceGraphic" in2="BackgroundImageFix" result="shape"/>
<feColorMatrix in="SourceAlpha" type="matrix" values="0 0 0 0 0 0 0 0 0 0 0 0 0 0 0 0 0 0 127 0" result="hardAlpha"/>
<feOffset/>
<feGaussianBlur stdDeviation="5.20738"/>
<feComposite in2="hardAlpha" operator="arithmetic" k2="-1" k3="1"/>
<feColorMatrix type="matrix" values="0 0 0 0 0 0 0 0 0 0.239216 0 0 0 0 0.654902 0 0 0 1 0"/>
<feBlend mode="normal" in2="shape" result="effect1_innerShadow"/>
</filter>
<filter id="filter1_i" x="0.671143" y="0.526001" width="74.7423" height="106.124" filterUnits="userSpaceOnUse" color-interpolation-filters="sRGB">
<feFlood flood-opacity="0" result="BackgroundImageFix"/>
<feBlend mode="normal" in="SourceGraphic" in2="BackgroundImageFix" result="shape"/>
<feColorMatrix in="SourceAlpha" type="matrix" values="0 0 0 0 0 0 0 0 0 0 0 0 0 0 0 0 0 0 127 0" result="hardAlpha"/>
<feOffset/>
<feGaussianBlur stdDeviation="5.20738"/>
<feComposite in2="hardAlpha" operator="arithmetic" k2="-1" k3="1"/>
<feColorMatrix type="matrix" values="0 0 0 0 0 0 0 0 0 0.239216 0 0 0 0 0.654902 0 0 0 1 0"/>
<feBlend mode="normal" in2="shape" result="effect1_innerShadow"/>
</filter>
<filter id="filter2_f" x="5.72641" y="12.3297" width="24.2153" height="37.451" filterUnits="userSpaceOnUse" color-interpolation-filters="sRGB">
<feFlood flood-opacity="0" result="BackgroundImageFix"/>
<feBlend mode="normal" in="SourceGraphic" in2="BackgroundImageFix" result="shape"/>
<feGaussianBlur stdDeviation="1.54338" result="effect1_foregroundBlur"/>
</filter>
<filter id="filter3_f" x="35.2745" y="16.3694" width="37.8448" height="69.7526" filterUnits="userSpaceOnUse" color-interpolation-filters="sRGB">
<feFlood flood-opacity="0" result="BackgroundImageFix"/>
<feBlend mode="normal" in="SourceGraphic" in2="BackgroundImageFix" result="shape"/>
<feGaussianBlur stdDeviation="1.54338" result="effect1_foregroundBlur"/>
</filter>
<radialGradient id="paint0_radial" cx="0" cy="0" r="1" gradientUnits="userSpaceOnUse" gradientTransform="translate(23.9562 29.6002) rotate(64.5752) scale(86.3764 66.3862)">
<stop stop-color="#23C4FF"/>
<stop offset="1" stop-color="#0085FF" stop-opacity="0.1"/>
</radialGradient>
<radialGradient id="paint1_radial" cx="0" cy="0" r="1" gradientUnits="userSpaceOnUse" gradientTransform="translate(23.9562 29.6002) rotate(64.5752) scale(86.3764 66.3862)">
<stop stop-color="#23C4FF"/>
<stop offset="1" stop-color="#0085FF" stop-opacity="0.1"/>
</radialGradient>
</defs>
</svg>
